<svg width="21" height="20" viewBox="0 0 21 20" fill="none" xmlns="http://www.w3.org/2000/svg">
<path d="M19.3675 5.47501C19.3039 5.27635 19.1823 5.10122 19.0185 4.97205C18.8547 4.84289 18.656 4.76557 18.448 4.75001L15.5621 4.52189L14.4519 1.8922C14.3708 1.70177 14.2355 1.53938 14.0629 1.42524C13.8902 1.3111 13.6878 1.25024 13.4808 1.25024C13.2738 1.25024 13.0714 1.3111 12.8988 1.42524C12.7261 1.53938 12.5908 1.70177 12.5097 1.8922L11.3996 4.52189L8.51363 4.75001C8.30639 4.76528 8.1084 4.84193 7.94489 4.97017C7.78139 5.09841 7.65978 5.27245 7.59558 5.47008C7.53138 5.66771 7.52749 5.87999 7.58442 6.07984C7.64134 6.27969 7.75649 6.45806 7.91519 6.5922L10.1074 8.4422L9.43863 11.207C9.38999 11.4073 9.40189 11.6174 9.47282 11.8109C9.54375 12.0044 9.67052 12.1724 9.83707 12.2938C10.0052 12.4177 10.2062 12.4889 10.4148 12.4985C10.6234 12.5081 10.8302 12.4556 11.0089 12.3477L13.4808 10.8594L15.9535 12.3485C16.1323 12.4561 16.339 12.5084 16.5476 12.4988C16.7561 12.4892 16.9571 12.4182 17.1253 12.2945C17.2916 12.173 17.4181 12.0049 17.4889 11.8114C17.5596 11.618 17.5715 11.408 17.523 11.2078L16.8543 8.44298L19.0464 6.59298C19.2052 6.45979 19.3206 6.28223 19.3778 6.08305C19.435 5.88387 19.4314 5.67215 19.3675 5.47501ZM15.7527 7.73439C15.664 7.80934 15.5979 7.90752 15.5619 8.01791C15.5259 8.12831 15.5214 8.24655 15.5488 8.35939L16.1957 11.032L13.8035 9.59377C13.7062 9.53521 13.5948 9.50427 13.4812 9.50427C13.3677 9.50427 13.2562 9.53521 13.1589 9.59377L10.7668 11.0336L11.4136 8.35939C11.441 8.24648 11.4363 8.12819 11.4001 8.01779C11.364 7.90739 11.2978 7.80925 11.2089 7.73439L9.10582 5.95783L11.8808 5.7383C11.995 5.72923 12.1045 5.68895 12.1974 5.62185C12.2903 5.55475 12.3629 5.46342 12.4074 5.35783L13.4808 2.80548L14.5582 5.35783C14.6026 5.46342 14.6753 5.55475 14.7681 5.62185C14.861 5.68895 14.9705 5.72923 15.0847 5.7383L17.8605 5.95783L15.7527 7.73439ZM7.54957 9.62345L2.9855 14.1922C2.86823 14.3095 2.70917 14.3754 2.54332 14.3754C2.37746 14.3754 2.2184 14.3095 2.10113 14.1922C1.98385 14.0749 1.91797 13.9159 1.91797 13.75C1.91797 13.5842 1.98385 13.4251 2.10113 13.3078L6.66753 8.74142C6.78481 8.62415 6.94387 8.55826 7.10972 8.55826C7.27557 8.55826 7.43463 8.62415 7.55191 8.74142C7.66919 8.8587 7.73507 9.01776 7.73507 9.18361C7.73507 9.34946 7.66919 9.50852 7.55191 9.6258L7.54957 9.62345ZM8.3941 13.5195C8.51122 13.6367 8.57701 13.7957 8.57701 13.9613C8.57701 14.127 8.51122 14.2859 8.3941 14.4031L4.2355 18.5672C4.17743 18.6253 4.1085 18.6713 4.03263 18.7028C3.95676 18.7342 3.87544 18.7504 3.79332 18.7504C3.71119 18.7504 3.62988 18.7342 3.55401 18.7028C3.47814 18.6713 3.4092 18.6253 3.35113 18.5672C3.29306 18.5091 3.247 18.4402 3.21557 18.3643C3.18414 18.2885 3.16797 18.2071 3.16797 18.125C3.16797 18.0429 3.18414 17.9616 3.21557 17.8857C3.247 17.8098 3.29306 17.7409 3.35113 17.6828L7.51285 13.5219C7.63005 13.4048 7.78896 13.339 7.95464 13.339C8.12033 13.339 8.27924 13.4048 8.39644 13.5219L8.3941 13.5195ZM14.0972 13.4414C14.1553 13.4995 14.2014 13.5684 14.2329 13.6443C14.2643 13.7201 14.2805 13.8015 14.2805 13.8836C14.2805 13.9657 14.2643 14.0471 14.2329 14.1229C14.2014 14.1988 14.1553 14.2677 14.0972 14.3258L9.8566 18.5664C9.73932 18.6837 9.58026 18.7496 9.41441 18.7496C9.24856 18.7496 9.0895 18.6837 8.97222 18.5664C8.85495 18.4491 8.78906 18.2901 8.78906 18.1242C8.78906 17.9584 8.85495 17.7993 8.97222 17.682L13.2136 13.4414C13.2718 13.3829 13.3409 13.3365 13.4171 13.3048C13.4933 13.2731 13.575 13.2569 13.6575 13.2569C13.74 13.257 13.8217 13.2734 13.8979 13.3052C13.974 13.337 14.0431 13.3836 14.1011 13.4422L14.0972 13.4414Z" fill="#205529"/>
</svg>
