<svg width="24" height="24" viewBox="0 0 24 24" fill="none" xmlns="http://www.w3.org/2000/svg">
<path d="M20.2892 3.7124C19.3528 2.77604 18.0828 2.25 16.7586 2.25C15.4343 2.25 14.1643 2.77604 13.2279 3.7124L3.71232 13.2271C2.79553 14.1675 2.28615 15.4312 2.29454 16.7445C2.30292 18.0578 2.82839 19.3149 3.75712 20.2435C4.68585 21.1721 5.94304 21.6974 7.25634 21.7057C8.56964 21.7139 9.83331 21.2043 10.7736 20.2874L20.2901 10.7727C21.2249 9.83563 21.7498 8.56599 21.7497 7.24237C21.7495 5.91874 21.2243 4.64924 20.2892 3.7124ZM9.71326 19.2271C9.05821 19.8823 8.16974 20.2504 7.24328 20.2505C6.31682 20.2506 5.42827 19.8826 4.7731 19.2276C4.11793 18.5725 3.74982 17.684 3.74973 16.7576C3.74964 15.8311 4.11759 14.9426 4.77263 14.2874L8.99982 10.0602L13.9404 14.9999L9.71326 19.2271ZM19.2289 9.7124L14.9998 13.9396L10.0611 8.9999L14.2892 4.77272C14.9468 4.13027 15.8312 3.77299 16.7506 3.77836C17.6699 3.78373 18.5501 4.15132 19.2002 4.80141C19.8503 5.4515 20.2179 6.33166 20.2232 7.25101C20.2286 8.17036 19.8713 9.05476 19.2289 9.7124ZM17.7823 7.71928C17.8521 7.78893 17.9074 7.87165 17.9451 7.9627C17.9829 8.05375 18.0023 8.15134 18.0023 8.2499C18.0023 8.34847 17.9829 8.44606 17.9451 8.53711C17.9074 8.62816 17.8521 8.71088 17.7823 8.78053L15.5323 11.0305C15.4626 11.1002 15.3799 11.1554 15.2889 11.193C15.1979 11.2307 15.1003 11.25 15.0018 11.25C14.9033 11.2499 14.8058 11.2305 14.7148 11.1928C14.6238 11.155 14.5412 11.0997 14.4715 11.0301C14.4019 10.9604 14.3467 10.8777 14.309 10.7866C14.2714 10.6956 14.252 10.5981 14.2521 10.4996C14.2521 10.4011 14.2716 10.3035 14.3093 10.2126C14.347 10.1216 14.4023 10.0389 14.472 9.96928L16.722 7.71928C16.8626 7.57873 17.0533 7.49978 17.2522 7.49978C17.451 7.49978 17.6417 7.57873 17.7823 7.71928Z" fill="#205529"/>
</svg>
