<svg width="24" height="24" viewBox="0 0 24 24" fill="none" xmlns="http://www.w3.org/2000/svg">
<path d="M23.2155 4.4895C23.2048 4.30602 23.127 4.13286 22.9971 4.00289C22.8671 3.87293 22.6939 3.79522 22.5105 3.7845C17.658 3.50325 13.7617 4.97888 12.0873 7.74263C10.9811 9.56981 10.983 11.7889 12.0723 13.9058C11.4523 14.6439 10.9991 15.5074 10.7439 16.437L9.21859 14.9061C9.95171 13.3751 9.92359 11.7795 9.12484 10.4539C7.88734 8.41106 5.03078 7.31606 1.48421 7.52419C1.30073 7.5349 1.12757 7.61262 0.997607 7.74258C0.867644 7.87255 0.789928 8.04571 0.779212 8.22919C0.57015 11.7758 1.66609 14.6323 3.7089 15.8698C4.38302 16.2817 5.15767 16.4997 5.94765 16.4998C6.71443 16.4904 7.46928 16.3087 8.1564 15.9683L10.5002 18.312V20.9998C10.5002 21.1987 10.5792 21.3895 10.7198 21.5301C10.8605 21.6708 11.0512 21.7498 11.2502 21.7498C11.4491 21.7498 11.6398 21.6708 11.7805 21.5301C11.9211 21.3895 12.0002 21.1987 12.0002 20.9998V18.2351C11.9968 17.042 12.4028 15.8838 13.1505 14.9539C14.1151 15.458 15.1849 15.7278 16.2733 15.7414C17.3255 15.7448 18.3582 15.4573 19.2573 14.9108C22.0211 13.2383 23.5005 9.342 23.2155 4.4895ZM4.48234 14.5873C3.04421 13.7164 2.23046 11.6548 2.25015 8.99981C4.90515 8.97731 6.96671 9.79388 7.83765 11.232C8.29234 11.982 8.3664 12.8567 8.06827 13.7576L5.77984 11.4692C5.63804 11.3345 5.44923 11.2605 5.25366 11.263C5.05809 11.2655 4.87123 11.3443 4.73293 11.4826C4.59463 11.6209 4.51582 11.8077 4.51332 12.0033C4.51082 12.1989 4.58481 12.3877 4.71953 12.5295L7.00796 14.8179C6.10703 15.1161 5.23328 15.042 4.48234 14.5873ZM18.4802 13.6292C17.2239 14.3895 15.7473 14.4476 14.2473 13.8167L19.2808 8.78231C19.4155 8.64052 19.4895 8.4517 19.487 8.25613C19.4845 8.06056 19.4057 7.8737 19.2674 7.7354C19.1291 7.5971 18.9422 7.5183 18.7466 7.5158C18.5511 7.51329 18.3623 7.58729 18.2205 7.722L13.1861 12.7498C12.5523 11.2498 12.6095 9.77231 13.3736 8.517C14.6805 6.36075 17.7798 5.15888 21.7483 5.25169C21.8383 9.21919 20.6383 12.3223 18.4802 13.6292Z" fill="#205529"/>
</svg>
