<svg width="21" height="20" viewBox="0 0 21 20" fill="none" xmlns="http://www.w3.org/2000/svg">
<path d="M18.1253 3.1305C18.1164 2.9776 18.0517 2.8333 17.9434 2.72499C17.835 2.61669 17.6907 2.55193 17.5378 2.543C11.5902 2.19378 6.82613 3.9844 4.79488 7.34378C4.09079 8.49293 3.74383 9.8253 3.798 11.1719C3.84254 12.4157 4.20503 13.6719 4.87535 14.9102L3.35113 16.4336C3.23385 16.5509 3.16797 16.71 3.16797 16.8758C3.16797 17.0417 3.23385 17.2007 3.35113 17.318C3.4684 17.4353 3.62746 17.5012 3.79332 17.5012C3.95917 17.5012 4.11823 17.4353 4.2355 17.318L5.75894 15.7938C6.99644 16.4633 8.25347 16.8258 9.49644 16.8703C9.58342 16.8735 9.67014 16.875 9.7566 16.875C11.0158 16.8784 12.2511 16.5316 13.3246 15.8735C16.6839 13.8422 18.4753 9.07894 18.1253 3.1305ZM12.68 14.8047C10.9027 15.8813 8.79879 15.8985 6.68707 14.8649L13.6113 7.94144C13.6694 7.88337 13.7154 7.81443 13.7468 7.73856C13.7783 7.66269 13.7944 7.58137 13.7944 7.49925C13.7944 7.41713 13.7783 7.33581 13.7468 7.25994C13.7154 7.18407 13.6694 7.11513 13.6113 7.05706C13.5532 6.99899 13.4843 6.95293 13.4084 6.9215C13.3325 6.89008 13.2512 6.8739 13.1691 6.8739C13.087 6.8739 13.0057 6.89008 12.9298 6.9215C12.8539 6.95293 12.785 6.99899 12.7269 7.05706L5.80347 13.9844C4.773 11.875 4.78785 9.76565 5.86363 7.99144C7.58941 5.14222 11.6918 3.58206 16.9035 3.768C17.0902 8.97581 15.5293 13.0789 12.68 14.8047Z" fill="#205529"/>
</svg>
