<svg width="24" height="24" viewBox="0 0 24 24" fill="none" xmlns="http://www.w3.org/2000/svg">
<path d="M17.25 6.75004C17.2501 5.74369 16.961 4.75852 16.417 3.91184C15.8731 3.06516 15.0973 2.39266 14.1819 1.97441C13.2666 1.55616 12.2504 1.4098 11.2542 1.55275C10.2581 1.6957 9.32403 2.12194 8.56327 2.78072C7.80251 3.43949 7.24711 4.30303 6.96322 5.2685C6.67934 6.23398 6.67892 7.26071 6.96202 8.22641C7.24512 9.19212 7.79981 10.0561 8.56003 10.7155C9.32025 11.3749 10.254 11.8019 11.25 11.9457V21.75C11.25 21.949 11.329 22.1397 11.4697 22.2804C11.6103 22.421 11.8011 22.5 12 22.5C12.1989 22.5 12.3897 22.421 12.5303 22.2804C12.671 22.1397 12.75 21.949 12.75 21.75V11.9457C13.9987 11.7637 15.1403 11.1387 15.9664 10.1849C16.7925 9.23103 17.2481 8.01191 17.25 6.75004ZM12 10.5C11.2583 10.5 10.5333 10.2801 9.91661 9.86805C9.29993 9.456 8.81928 8.87033 8.53545 8.18511C8.25162 7.49988 8.17736 6.74588 8.32205 6.01845C8.46675 5.29103 8.8239 4.62284 9.34835 4.09839C9.8728 3.57394 10.541 3.21679 11.2684 3.0721C11.9958 2.9274 12.7498 3.00167 13.4351 3.28549C14.1203 3.56932 14.706 4.04997 15.118 4.66665C15.5301 5.28334 15.75 6.00836 15.75 6.75004C15.75 7.2425 15.653 7.73013 15.4645 8.18511C15.2761 8.64008 14.9999 9.05347 14.6517 9.40169C14.3034 9.74991 13.89 10.0261 13.4351 10.2146C12.9801 10.403 12.4925 10.5 12 10.5Z" fill="#205529"/>
</svg>
