<svg width="49" height="48" viewBox="0 0 49 48" fill="none" xmlns="http://www.w3.org/2000/svg">
<rect x="0.666504" width="48" height="48" rx="10" fill="#FAF2E6"/>
<rect x="1.1665" y="0.5" width="47" height="47" rx="9.5" stroke="#205529" stroke-opacity="0.1"/>
<path d="M19.8857 32.216C18.9577 32.216 18.1417 31.824 17.4377 31.04C16.7337 30.256 16.1897 29.192 15.8057 27.848C15.4217 26.504 15.2297 25 15.2297 23.336C15.2297 21.672 15.4217 20.176 15.8057 18.848C16.1897 17.504 16.7337 16.44 17.4377 15.656C18.1417 14.872 18.9577 14.48 19.8857 14.48C20.8137 14.48 21.6217 14.872 22.3097 15.656C23.0137 16.44 23.5577 17.504 23.9417 18.848C24.3417 20.176 24.5417 21.672 24.5417 23.336C24.5417 25 24.3417 26.504 23.9417 27.848C23.5577 29.192 23.0137 30.256 22.3097 31.04C21.6217 31.824 20.8137 32.216 19.8857 32.216ZM19.8857 31.568C20.8937 31.568 21.6297 30.888 22.0937 29.528C22.5737 28.168 22.8137 26.104 22.8137 23.336C22.8137 20.568 22.5737 18.512 22.0937 17.168C21.6297 15.808 20.8937 15.128 19.8857 15.128C18.8777 15.128 18.1337 15.808 17.6537 17.168C17.1897 18.512 16.9577 20.568 16.9577 23.336C16.9577 26.104 17.1897 28.168 17.6537 29.528C18.1337 30.888 18.8777 31.568 19.8857 31.568ZM26.1762 32C25.8882 32 25.7442 31.896 25.7442 31.688C25.7442 31.576 25.8002 31.432 25.9122 31.256L28.7922 26.864C29.9922 25.04 30.8562 23.472 31.3842 22.16C31.9282 20.832 32.2002 19.616 32.2002 18.512C32.2002 17.52 31.9922 16.76 31.5762 16.232C31.1762 15.704 30.5922 15.44 29.8242 15.44C29.0562 15.44 28.3602 15.712 27.7362 16.256C27.1122 16.784 26.7122 17.632 26.5362 18.8C26.4882 19.056 26.3682 19.184 26.1762 19.184C25.9362 19.184 25.8322 19.024 25.8642 18.704C25.9762 17.648 26.2482 16.816 26.6802 16.208C27.1282 15.584 27.6642 15.144 28.2882 14.888C28.9122 14.616 29.5442 14.48 30.1842 14.48C31.2882 14.48 32.1842 14.816 32.8722 15.488C33.5762 16.144 33.9282 17.064 33.9282 18.248C33.9282 19.08 33.7282 19.936 33.3282 20.816C32.9442 21.68 32.4082 22.632 31.7202 23.672C31.0482 24.696 30.2722 25.872 29.3922 27.2L27.5202 30.032C27.4242 30.176 27.4162 30.304 27.4962 30.416C27.5922 30.512 27.7202 30.56 27.8802 30.56H30.4482C31.0562 30.56 31.5602 30.496 31.9602 30.368C32.3602 30.224 32.6802 29.968 32.9202 29.6C33.1602 29.216 33.3442 28.672 33.4722 27.968L33.6882 26.84C33.7362 26.632 33.8562 26.528 34.0482 26.528C34.2722 26.528 34.3682 26.664 34.3362 26.936L34.0482 31.448C34.0162 31.816 33.8162 32 33.4482 32H26.1762Z" fill="#205529"/>
</svg>
