<svg width="48" height="48" viewBox="0 0 48 48" fill="none" xmlns="http://www.w3.org/2000/svg">
<rect width="48" height="48" rx="10" fill="#FAF2E6"/>
<rect x="0.5" y="0.5" width="47" height="47" rx="9.5" stroke="#205529" stroke-opacity="0.1"/>
<path d="M21.0122 32.216C20.0842 32.216 19.2682 31.824 18.5642 31.04C17.8602 30.256 17.3162 29.192 16.9322 27.848C16.5482 26.504 16.3562 25 16.3562 23.336C16.3562 21.672 16.5482 20.176 16.9322 18.848C17.3162 17.504 17.8602 16.44 18.5642 15.656C19.2682 14.872 20.0842 14.48 21.0122 14.48C21.9402 14.48 22.7482 14.872 23.4362 15.656C24.1402 16.44 24.6842 17.504 25.0682 18.848C25.4682 20.176 25.6682 21.672 25.6682 23.336C25.6682 25 25.4682 26.504 25.0682 27.848C24.6842 29.192 24.1402 30.256 23.4362 31.04C22.7482 31.824 21.9402 32.216 21.0122 32.216ZM21.0122 31.568C22.0202 31.568 22.7562 30.888 23.2202 29.528C23.7002 28.168 23.9402 26.104 23.9402 23.336C23.9402 20.568 23.7002 18.512 23.2202 17.168C22.7562 15.808 22.0202 15.128 21.0122 15.128C20.0042 15.128 19.2602 15.808 18.7802 17.168C18.3162 18.512 18.0842 20.568 18.0842 23.336C18.0842 26.104 18.3162 28.168 18.7802 29.528C19.2602 30.888 20.0042 31.568 21.0122 31.568ZM27.0113 32C26.7713 32 26.6513 31.912 26.6513 31.736C26.6513 31.56 26.7553 31.464 26.9633 31.448L27.8993 31.352C28.2353 31.32 28.4593 31.24 28.5713 31.112C28.6993 30.984 28.7633 30.752 28.7633 30.416V16.16C28.7633 15.888 28.6833 15.712 28.5233 15.632C28.3793 15.536 28.1873 15.504 27.9473 15.536L27.0833 15.632C26.7953 15.648 26.6513 15.544 26.6513 15.32C26.6513 15.144 26.7793 15.032 27.0353 14.984C27.8833 14.84 28.5073 14.704 28.9073 14.576C29.3073 14.432 29.6033 14.36 29.7953 14.36C30.1313 14.36 30.2993 14.536 30.2993 14.888V30.416C30.2993 30.752 30.3553 30.984 30.4673 31.112C30.5953 31.24 30.8273 31.32 31.1633 31.352L31.9553 31.448C32.1633 31.464 32.2673 31.56 32.2673 31.736C32.2673 31.912 32.1473 32 31.9073 32H27.0113Z" fill="#205529"/>
</svg>
