<svg width="49" height="48" viewBox="0 0 49 48" fill="none" xmlns="http://www.w3.org/2000/svg">
<rect x="0.333496" width="48" height="48" rx="10" fill="#FAF2E6"/>
<rect x="0.833496" y="0.5" width="47" height="47" rx="9.5" stroke="#205529" stroke-opacity="0.1"/>
<path d="M19.8808 32.216C18.9528 32.216 18.1368 31.824 17.4328 31.04C16.7288 30.256 16.1848 29.192 15.8008 27.848C15.4168 26.504 15.2248 25 15.2248 23.336C15.2248 21.672 15.4168 20.176 15.8008 18.848C16.1848 17.504 16.7288 16.44 17.4328 15.656C18.1368 14.872 18.9528 14.48 19.8808 14.48C20.8088 14.48 21.6168 14.872 22.3048 15.656C23.0088 16.44 23.5528 17.504 23.9368 18.848C24.3368 20.176 24.5368 21.672 24.5368 23.336C24.5368 25 24.3368 26.504 23.9368 27.848C23.5528 29.192 23.0088 30.256 22.3048 31.04C21.6168 31.824 20.8088 32.216 19.8808 32.216ZM19.8808 31.568C20.8888 31.568 21.6248 30.888 22.0888 29.528C22.5688 28.168 22.8088 26.104 22.8088 23.336C22.8088 20.568 22.5688 18.512 22.0888 17.168C21.6248 15.808 20.8888 15.128 19.8808 15.128C18.8728 15.128 18.1288 15.808 17.6488 17.168C17.1848 18.512 16.9528 20.568 16.9528 23.336C16.9528 26.104 17.1848 28.168 17.6488 29.528C18.1288 30.888 18.8728 31.568 19.8808 31.568ZM28.6399 32.216C27.8079 32.216 27.1359 32.064 26.6239 31.76C26.1279 31.456 25.8799 31.056 25.8799 30.56C25.8799 30.288 25.9599 30.08 26.1199 29.936C26.2799 29.776 26.4879 29.696 26.7439 29.696C27.0479 29.696 27.2479 29.792 27.3439 29.984C27.4399 30.176 27.5119 30.392 27.5599 30.632C27.6079 30.872 27.7119 31.088 27.8719 31.28C28.0479 31.472 28.3519 31.568 28.7839 31.568C29.6959 31.568 30.4319 31.144 30.9919 30.296C31.5679 29.432 31.8559 28.304 31.8559 26.912C31.8559 23.824 30.9759 22.28 29.2159 22.28C28.5759 22.28 28.0319 22.432 27.5839 22.736C27.3279 22.928 27.1359 22.952 27.0079 22.808C26.9119 22.648 26.9759 22.456 27.1999 22.232L28.9279 20.6C29.6319 19.944 30.1439 19.344 30.4639 18.8C30.7839 18.256 30.9439 17.712 30.9439 17.168C30.9439 16.576 30.8079 16.12 30.5359 15.8C30.2799 15.464 29.9199 15.296 29.4559 15.296C28.8479 15.296 28.3359 15.52 27.9199 15.968C27.5039 16.416 27.2319 17.032 27.1039 17.816C27.0719 18.056 26.9519 18.176 26.7439 18.176C26.5199 18.176 26.4239 18.032 26.4559 17.744C26.5679 16.752 26.9359 15.96 27.5599 15.368C28.1999 14.776 28.9839 14.48 29.9119 14.48C30.7119 14.48 31.3519 14.704 31.8319 15.152C32.3279 15.584 32.5759 16.168 32.5759 16.904C32.5759 18.168 31.5439 19.512 29.4799 20.936L28.9279 21.32C28.8639 21.368 28.8399 21.424 28.8559 21.488C28.8879 21.536 28.9439 21.552 29.0239 21.536C29.2959 21.456 29.5679 21.416 29.8399 21.416C30.5759 21.416 31.2239 21.624 31.7839 22.04C32.3439 22.456 32.7839 23.04 33.1039 23.792C33.4239 24.528 33.5839 25.376 33.5839 26.336C33.5839 27.104 33.4479 27.84 33.1759 28.544C32.9039 29.248 32.5359 29.88 32.0719 30.44C31.6079 30.984 31.0799 31.416 30.4879 31.736C29.8959 32.056 29.2799 32.216 28.6399 32.216Z" fill="#205529"/>
</svg>
